<?xml version="1.0" standalone="no"?>
<!DOCTYPE svg PUBLIC "-//W3C//DTD SVG 20010904//EN"
    "http://www.w3.org/TR/2001/REC-SVG-20010904/DTD/svg10.dtd">
<svg version="1.0" xmlns="http://www.w3.org/2000/svg"
     width="700.000000pt" height="700.000000pt" viewBox="0 0 700.000000 700.000000"
     preserveAspectRatio="xMidYMid meet">
<metadata>
Created by potrace 1.11, written by Peter Selinger 2001-2013
</metadata>
<g transform="translate(0.000000,700.000000) scale(0.100000,-0.100000)"
   fill="#000000" stroke="none">
<path d="M3435 6979 c-27 -11 -108 -40 -180 -65 -71 -25 -139 -49 -150 -55
-11 -5 -60 -23 -110 -40 -49 -16 -144 -50 -210 -74 -66 -24 -223 -80 -350
-125 -126 -45 -252 -90 -280 -100 -62 -23 -372 -134 -770 -275 -165 -58 -322
-114 -350 -125 -27 -10 -113 -41 -190 -68 -304 -108 -398 -142 -403 -147 -8
-8 -6 -2304 2 -2455 5 -74 9 -137 11 -140 1 -3 6 -38 9 -78 4 -41 11 -95 16
-120 5 -26 11 -63 14 -82 3 -19 12 -66 21 -105 55 -248 142 -513 236 -716 236
-509 567 -932 1014 -1298 84 -68 298 -214 413 -280 71 -41 385 -201 395 -201
3 0 56 -24 118 -54 63 -29 137 -64 164 -76 28 -13 106 -49 174 -81 67 -33 124
-59 126 -59 1 0 49 -22 106 -49 57 -26 134 -62 172 -79 l67 -31 73 33 c39 18
106 49 147 69 112 52 358 166 420 194 30 14 93 43 140 65 47 22 146 69 221
104 401 188 705 395 1003 685 374 365 647 781 833 1274 60 158 128 387 149
505 34 186 44 244 49 295 4 33 8 71 10 84 14 86 18 423 18 1439 0 633 -2 1155
-5 1158 -5 4 -230 87 -358 130 -83 28 -355 125 -390 139 -19 8 -138 51 -265
95 -126 45 -255 90 -285 102 -30 11 -156 56 -280 100 -124 43 -286 101 -360
128 -440 159 -1121 400 -1127 399 -5 0 -30 -10 -58 -20z m161 -942 c1084 -385
1631 -583 1626 -589 -7 -6 -623 -363 -1570 -909 l-154 -89 -116 69 c-99 58
-652 377 -746 431 -17 9 -54 31 -82 47 -27 17 -70 41 -95 55 -56 32 -279 161
-434 251 -66 38 -136 79 -155 89 -19 11 -50 29 -69 40 l-33 21 138 49 c77 27
234 83 349 125 419 150 482 172 595 212 63 23 232 84 375 135 143 52 265 95
270 95 6 0 51 -14 101 -32z m-1924 -1541 c194 -112 369 -212 388 -223 138 -78
450 -259 472 -274 15 -11 29 -19 31 -19 3 0 70 -38 150 -85 80 -46 165 -96
189 -110 23 -13 69 -39 101 -56 31 -18 57 -39 58 -48 4 -72 1 -2503 -3 -2506
-3 -3 -23 3 -44 14 -21 11 -106 52 -187 91 -565 269 -990 690 -1256 1242 -83
172 -177 446 -197 573 -3 22 -8 43 -10 46 -3 5 -29 163 -40 249 -7 49 -15
1310 -9 1310 2 0 163 -92 357 -204z m4014 -428 c-2 -348 -6 -646 -9 -663 -3
-16 -8 -50 -11 -75 -6 -57 -36 -232 -41 -240 -2 -4 -7 -22 -10 -41 -29 -167
-153 -482 -268 -683 -235 -410 -538 -720 -942 -964 -108 -65 -455 -235 -464
-227 -5 6 -5 2514 0 2519 4 4 130 77 224 131 22 12 107 61 188 109 82 47 151
86 154 86 3 0 25 14 50 30 24 17 46 30 47 30 2 0 86 48 187 107 101 58 202
116 224 128 22 12 166 96 320 185 261 151 346 200 352 200 1 0 1 -285 -1 -632z"/>
</g>
</svg>
